<?xml version="1.0" encoding="UTF-8"?>
<svg xmlns="http://www.w3.org/2000/svg" xmlns:xlink="http://www.w3.org/1999/xlink" width="72px" height="72px" viewBox="0 0 72 72" version="1.1">
<g id="surface1">
<path style=" stroke:none;fill-rule:nonzero;fill:rgb(73.725492%,34.117648%,96.862745%);fill-opacity:1;" d="M 0 0 C 23.761719 0 47.519531 0 72 0 C 72 23.761719 72 47.519531 72 72 C 48.238281 72 24.480469 72 0 72 C 0 48.238281 0 24.480469 0 0 Z M 0 0 "/>
<path style=" stroke:none;fill-rule:nonzero;fill:rgb(99.215686%,98.823529%,99.607843%);fill-opacity:1;" d="M 10.800781 23.761719 C 14.542969 23.734375 18.285156 23.714844 22.03125 23.703125 C 23.769531 23.699219 25.507812 23.691406 27.246094 23.679688 C 28.929688 23.667969 30.613281 23.660156 32.296875 23.65625 C 32.933594 23.65625 33.570312 23.652344 34.207031 23.644531 C 41.546875 23.582031 48.824219 24.128906 54.335938 29.476562 C 58.910156 34.355469 59.097656 40.335938 59.125 46.667969 C 59.128906 46.933594 59.128906 47.203125 59.128906 47.476562 C 59.136719 48.898438 59.144531 50.316406 59.144531 51.734375 C 59.148438 53.183594 59.164062 54.628906 59.175781 56.078125 C 59.1875 57.207031 59.1875 58.335938 59.191406 59.464844 C 59.191406 59.996094 59.195312 60.53125 59.203125 61.0625 C 59.207031 61.316406 59.210938 61.566406 59.210938 61.828125 C 59.21875 62.15625 59.21875 62.15625 59.222656 62.492188 C 59.164062 66.113281 58.542969 68.222656 57.601562 72 C 38.59375 72 19.585938 72 0 72 C 0 64.515625 0 57.03125 0 49.320312 C 15.5625 49.320312 31.125 49.320312 47.160156 49.320312 C 47.359375 42.652344 47.359375 42.652344 44.863281 36.742188 C 42.386719 34.796875 39.335938 34.871094 36.300781 34.847656 C 36.023438 34.84375 35.746094 34.839844 35.460938 34.835938 C 34.554688 34.824219 33.644531 34.816406 32.738281 34.804688 C 32.105469 34.796875 31.46875 34.792969 30.835938 34.785156 C 29.175781 34.761719 27.519531 34.746094 25.859375 34.726562 C 24.160156 34.710938 22.464844 34.691406 20.769531 34.671875 C 17.445312 34.632812 14.121094 34.59375 10.800781 34.558594 C 10.800781 30.996094 10.800781 27.433594 10.800781 23.761719 Z M 10.800781 23.761719 "/>
<path style=" stroke:none;fill-rule:nonzero;fill:rgb(73.725492%,34.117648%,96.862745%);fill-opacity:1;" d="M 10.800781 60.480469 C 22.796875 60.480469 34.796875 60.480469 47.160156 60.480469 C 47.160156 67.855469 47.160156 67.855469 45.71875 69.839844 C 44.820312 70.71875 44.820312 70.71875 43.921875 71.28125 C 43.71875 71.410156 43.511719 71.535156 43.304688 71.667969 C 42.152344 72.132812 41.152344 72.09375 39.910156 72.097656 C 39.65625 72.101562 39.398438 72.101562 39.136719 72.105469 C 38.289062 72.109375 37.445312 72.109375 36.601562 72.109375 C 36.011719 72.109375 35.421875 72.109375 34.832031 72.113281 C 33.597656 72.117188 32.363281 72.117188 31.128906 72.113281 C 29.550781 72.113281 27.972656 72.117188 26.394531 72.125 C 25.175781 72.132812 23.957031 72.132812 22.742188 72.128906 C 22.160156 72.128906 21.578125 72.132812 20.996094 72.136719 C 20.179688 72.140625 19.363281 72.136719 18.546875 72.132812 C 17.855469 72.132812 17.855469 72.132812 17.144531 72.132812 C 15.160156 71.929688 13.789062 71.359375 12.308594 69.976562 C 10.261719 67.21875 10.800781 63.757812 10.800781 60.480469 Z M 10.800781 60.480469 "/>
<path style=" stroke:none;fill-rule:nonzero;fill:rgb(97.254902%,94.117647%,98.431373%);fill-opacity:1;" d="M 12.601562 70.199219 C 13.667969 70.675781 14.738281 71.152344 15.839844 71.640625 C 15.839844 71.757812 15.839844 71.878906 15.839844 72 C 14.53125 72 13.226562 72 11.878906 72 C 12.117188 71.40625 12.355469 70.8125 12.601562 70.199219 Z M 12.601562 70.199219 "/>
</g>
</svg>
