<?xml version="1.0" encoding="UTF-8"?>
<svg xmlns="http://www.w3.org/2000/svg" xmlns:xlink="http://www.w3.org/1999/xlink" width="149px" height="28px" viewBox="0 0 149 28" version="1.1">
<g id="surface1">
<path style=" stroke:none;fill-rule:nonzero;fill:rgb(79.607844%,30.588236%,99.607843%);fill-opacity:1;" d="M 0.515625 0.417969 C 11.703125 0.417969 22.894531 0.417969 34.425781 0.417969 C 34.425781 9.519531 34.425781 18.621094 34.425781 28 C 31.882812 28 29.335938 28 26.71875 28 C 26.742188 27.035156 26.765625 26.066406 26.789062 25.070312 C 26.804688 24.128906 26.816406 23.1875 26.832031 22.246094 C 26.839844 21.59375 26.855469 20.941406 26.871094 20.289062 C 26.898438 19.351562 26.910156 18.410156 26.917969 17.46875 C 26.929688 17.183594 26.9375 16.894531 26.949219 16.597656 C 26.953125 14.492188 26.273438 13.324219 24.660156 11.703125 C 22.28125 10.347656 19.113281 10.394531 16.300781 10.316406 C 15.707031 10.296875 15.117188 10.28125 14.503906 10.261719 C 13.894531 10.246094 13.28125 10.230469 12.652344 10.210938 C 12.027344 10.195312 11.40625 10.175781 10.761719 10.15625 C 9.230469 10.113281 7.699219 10.070312 6.164062 10.03125 C 6.164062 11.132812 6.164062 12.238281 6.164062 13.375 C 6.609375 13.367188 7.050781 13.359375 7.507812 13.351562 C 9.15625 13.332031 10.800781 13.316406 12.445312 13.304688 C 13.160156 13.296875 13.871094 13.289062 14.582031 13.277344 C 15.605469 13.261719 16.632812 13.257812 17.65625 13.25 C 18.273438 13.242188 18.886719 13.238281 19.523438 13.230469 C 21.066406 13.375 21.066406 13.375 22.027344 13.964844 C 23.582031 15.742188 23.121094 17.410156 23.121094 19.640625 C 15.660156 19.640625 8.199219 19.640625 0.515625 19.640625 C 0.515625 13.296875 0.515625 6.953125 0.515625 0.417969 Z M 0.515625 0.417969 "/>
<path style=" stroke:none;fill-rule:nonzero;fill:rgb(0%,0%,0%);fill-opacity:1;" d="M 131.660156 7 C 132.230469 6.988281 132.230469 6.988281 132.808594 6.972656 C 135.839844 6.957031 138.449219 7.332031 140.714844 9.117188 C 142.496094 11.933594 142.089844 15.707031 141.484375 18.753906 C 140.617188 20.363281 139.59375 21.335938 137.695312 22.148438 C 135.800781 22.441406 133.96875 22.421875 132.042969 22.382812 C 131.546875 22.390625 131.046875 22.394531 130.53125 22.398438 C 127.566406 22.375 125.570312 22.195312 123.308594 20.476562 C 121.941406 18.683594 122.113281 16.675781 122.121094 14.625 C 122.113281 14.296875 122.105469 13.964844 122.097656 13.621094 C 122.09375 11.65625 122.277344 10.378906 123.824219 8.777344 C 126.246094 7.050781 128.554688 7.015625 131.660156 7 Z M 126.90625 11.703125 C 126.761719 13.074219 126.761719 13.074219 126.8125 14.625 C 126.8125 15.152344 126.816406 15.679688 126.820312 16.21875 C 126.792969 17.507812 126.792969 17.507812 127.421875 18.386719 C 128.867188 18.398438 130.3125 18.40625 131.753906 18.414062 C 132.375 18.417969 132.375 18.417969 133.003906 18.425781 C 134.054688 18.429688 135.105469 18.410156 136.15625 18.386719 C 137.089844 17.628906 136.738281 16.589844 136.738281 15.578125 C 136.734375 15.105469 136.734375 15.105469 136.734375 14.625 C 136.734375 14.3125 136.738281 14 136.738281 13.675781 C 136.914062 12.144531 136.914062 12.144531 136.15625 10.867188 C 134.789062 10.8125 133.441406 10.789062 132.078125 10.789062 C 131.695312 10.78125 131.316406 10.777344 130.921875 10.773438 C 128.675781 10.695312 128.675781 10.695312 126.90625 11.703125 Z M 126.90625 11.703125 "/>
<path style=" stroke:none;fill-rule:nonzero;fill:rgb(0%,0%,0%);fill-opacity:1;" d="M 49.324219 7.523438 C 51.070312 7.484375 52.8125 7.464844 54.558594 7.445312 C 55.050781 7.433594 55.542969 7.421875 56.050781 7.414062 C 60.753906 7.371094 60.753906 7.371094 62.683594 8.777344 C 64.621094 10.621094 64.457031 12.53125 64.417969 14.835938 C 64.421875 15.1875 64.429688 15.539062 64.433594 15.902344 C 64.421875 17.890625 64.335938 19.320312 62.683594 20.894531 C 60.378906 22.519531 57.871094 22.335938 54.976562 22.304688 C 54.519531 22.3125 54.0625 22.316406 53.589844 22.320312 C 50.457031 22.308594 48.65625 21.980469 46.34375 20.171875 C 45.035156 18.15625 45.652344 15.570312 45.726562 13.375 C 50.304688 13.375 54.882812 13.375 59.601562 13.375 C 59.429688 12.683594 59.261719 11.992188 59.085938 11.285156 C 55.863281 11.144531 52.644531 11.007812 49.324219 10.867188 C 49.324219 9.761719 49.324219 8.660156 49.324219 7.523438 Z M 50.351562 16.714844 C 50.351562 17.269531 50.351562 17.820312 50.351562 18.386719 C 51.808594 18.980469 53.066406 18.878906 54.6875 18.882812 C 55.28125 18.890625 55.871094 18.894531 56.484375 18.902344 C 58.148438 18.90625 58.148438 18.90625 59.601562 17.96875 C 59.601562 17.554688 59.601562 17.144531 59.601562 16.714844 C 56.546875 16.714844 53.496094 16.714844 50.351562 16.714844 Z M 50.351562 16.714844 "/>
<path style=" stroke:none;fill-rule:nonzero;fill:rgb(0%,0%,0%);fill-opacity:1;" d="M 97.300781 7.417969 C 97.785156 7.410156 98.273438 7.402344 98.773438 7.390625 C 103.277344 7.371094 103.277344 7.371094 105.328125 8.777344 C 107.492188 11.203125 106.867188 12.527344 106.867188 15.878906 C 102.121094 15.878906 97.375 15.878906 92.484375 15.878906 C 92.652344 16.707031 92.820312 17.535156 92.996094 18.386719 C 96.386719 18.527344 99.777344 18.664062 103.273438 18.804688 C 103.273438 19.910156 103.273438 21.011719 103.273438 22.148438 C 101.527344 22.1875 99.785156 22.207031 98.039062 22.226562 C 97.296875 22.242188 97.296875 22.242188 96.542969 22.257812 C 91.910156 22.296875 91.910156 22.296875 89.914062 20.894531 C 87.804688 18.972656 88.125 17.117188 88.148438 14.652344 C 88.136719 14.238281 88.128906 13.824219 88.117188 13.398438 C 88.117188 11.53125 88.136719 10.359375 89.316406 8.722656 C 91.632812 7.089844 94.398438 7.429688 97.300781 7.417969 Z M 93.511719 10.867188 C 93.171875 11.554688 92.832031 12.246094 92.484375 12.957031 C 95.703125 12.957031 98.925781 12.957031 102.246094 12.957031 C 102.074219 12.265625 101.90625 11.574219 101.730469 10.867188 C 99.019531 10.867188 96.304688 10.867188 93.511719 10.867188 Z M 93.511719 10.867188 "/>
<path style=" stroke:none;fill-rule:nonzero;fill:rgb(0%,0%,0%);fill-opacity:1;" d="M 85.289062 7.523438 C 85.542969 8.144531 85.542969 8.144531 85.804688 8.777344 C 82.75 11.257812 82.75 11.257812 79.636719 13.792969 C 80.65625 15.449219 81.582031 16.28125 83.203125 17.550781 C 86.246094 19.941406 86.246094 19.941406 87.34375 21.3125 C 87.34375 21.589844 87.34375 21.863281 87.34375 22.148438 C 82.511719 22.660156 82.511719 22.660156 80.570312 21.449219 C 79.679688 20.597656 78.886719 19.71875 78.097656 18.804688 C 77.59375 18.378906 77.082031 17.957031 76.554688 17.550781 C 74.667969 18.179688 73.699219 19.074219 72.378906 20.320312 C 70.304688 22.074219 70.304688 22.074219 68.433594 22.394531 C 67.171875 22.386719 65.980469 22.320312 64.738281 22.148438 C 65.023438 20.554688 65.851562 19.867188 67.273438 18.78125 C 68.511719 17.828125 69.4375 17.042969 70.390625 15.878906 C 70.730469 15.878906 71.066406 15.878906 71.417969 15.878906 C 71.910156 14.964844 71.910156 14.964844 71.929688 13.792969 C 70.726562 12.40625 69.4375 11.34375 67.949219 10.160156 C 66.792969 9.195312 66.792969 9.195312 66.28125 7.941406 C 68.222656 7.734375 69.996094 7.652344 71.929688 7.941406 C 73.4375 8.894531 74.484375 9.988281 75.527344 11.285156 C 76.539062 11.132812 76.539062 11.132812 77.582031 10.867188 C 78.152344 10.078125 78.152344 10.078125 78.609375 9.195312 C 79.507812 8.253906 79.976562 7.96875 81.425781 7.726562 C 81.886719 7.703125 82.34375 7.679688 82.816406 7.652344 C 83.28125 7.625 83.742188 7.597656 84.21875 7.570312 C 84.574219 7.554688 84.925781 7.539062 85.289062 7.523438 Z M 85.289062 7.523438 "/>
<path style=" stroke:none;fill-rule:nonzero;fill:rgb(79.215688%,30.588236%,99.607843%);fill-opacity:1;" d="M 5.136719 22.984375 C 11.070312 22.984375 17.007812 22.984375 23.121094 22.984375 C 22.949219 24.363281 22.78125 25.742188 22.605469 27.164062 C 20 28.578125 16.933594 28.152344 13.871094 28.15625 C 13.207031 28.167969 12.539062 28.175781 11.851562 28.1875 C 11.214844 28.1875 10.578125 28.191406 9.921875 28.191406 C 9.335938 28.195312 8.753906 28.199219 8.152344 28.203125 C 6.679688 28 6.679688 28 5.707031 27.359375 C 5.136719 26.328125 5.136719 26.328125 5.136719 22.984375 Z M 5.136719 22.984375 "/>
<path style=" stroke:none;fill-rule:nonzero;fill:rgb(0%,0%,0%);fill-opacity:1;" d="M 117.785156 7.496094 C 118.761719 7.5 118.761719 7.5 119.753906 7.507812 C 120.25 7.511719 120.746094 7.515625 121.253906 7.523438 C 121.253906 8.625 121.253906 9.730469 121.253906 10.867188 C 118.882812 11.003906 116.507812 11.140625 114.0625 11.285156 C 114.066406 12.03125 114.074219 12.78125 114.082031 13.554688 C 114.085938 14.53125 114.089844 15.503906 114.09375 16.480469 C 114.097656 16.976562 114.101562 17.472656 114.105469 17.980469 C 114.109375 18.449219 114.109375 18.921875 114.113281 19.40625 C 114.113281 19.839844 114.117188 20.277344 114.121094 20.726562 C 114.0625 21.730469 114.0625 21.730469 113.546875 22.148438 C 112.175781 22.207031 110.8125 22.167969 109.4375 22.148438 C 109.40625 20.382812 109.390625 18.613281 109.375 16.847656 C 109.363281 16.347656 109.355469 15.84375 109.347656 15.328125 C 109.34375 14.847656 109.339844 14.363281 109.335938 13.863281 C 109.332031 13.421875 109.328125 12.976562 109.320312 12.519531 C 109.472656 10.925781 109.957031 9.722656 111.171875 8.460938 C 113.113281 7.246094 115.433594 7.480469 117.785156 7.496094 Z M 117.785156 7.496094 "/>
<path style=" stroke:none;fill-rule:nonzero;fill:rgb(0%,0%,0%);fill-opacity:1;" d="M 142.320312 7.941406 C 144.355469 7.941406 146.390625 7.941406 148.484375 7.941406 C 148.484375 8.769531 148.484375 9.59375 148.484375 10.449219 C 146.621094 10.449219 144.757812 10.449219 142.835938 10.449219 C 142.664062 9.621094 142.496094 8.792969 142.320312 7.941406 Z M 142.320312 7.941406 "/>
</g>
</svg>
